<?xml version="1.0" standalone="no"?>
<!DOCTYPE svg PUBLIC "-//W3C//DTD SVG 20010904//EN"
 "http://www.w3.org/TR/2001/REC-SVG-20010904/DTD/svg10.dtd">
<svg version="1.0" xmlns="http://www.w3.org/2000/svg"
 width="1569.000000pt" height="1569.000000pt" viewBox="0 0 1569.000000 1569.000000"
 preserveAspectRatio="xMidYMid meet">
<metadata>
Created by potrace 1.11, written by Peter Selinger 2001-2013
</metadata>
<g transform="translate(0.000000,1569.000000) scale(0.100000,-0.100000)"
fill="#000000" stroke="none">
<path d="M15558 15544 c-3 -5 -18 -53 -33 -107 -75 -276 -208 -598 -353 -852
-84 -148 -256 -399 -329 -480 -10 -11 -45 -52 -78 -90 -164 -191 -459 -484
-680 -676 -255 -221 -399 -325 -765 -554 -69 -43 -147 -92 -175 -110 -27 -17
-76 -46 -107 -64 -61 -34 -74 -47 -35 -32 13 5 37 11 53 14 16 3 144 31 284
62 140 31 266 59 280 61 14 3 33 7 42 10 9 3 25 7 36 9 16 3 151 32 232 50 8
2 110 24 225 49 116 25 228 50 250 56 22 6 103 24 179 40 150 32 155 31 157
-20 0 -14 2 -34 4 -45 2 -11 6 -38 10 -61 3 -22 8 -52 10 -65 5 -30 23 -141
30 -194 4 -22 12 -78 20 -125 8 -47 16 -102 19 -122 11 -68 17 -112 32 -208 9
-52 17 -106 19 -120 6 -42 16 -102 25 -160 5 -30 12 -73 15 -95 3 -22 8 -56
11 -75 3 -19 7 -44 9 -55 15 -95 18 -121 16 -128 -1 -5 3 -6 8 -3 12 8 136
247 199 386 17 36 44 95 60 132 56 121 160 391 212 548 43 130 131 448 146
523 2 12 8 45 14 72 5 28 12 68 16 90 3 22 9 56 14 75 5 19 11 60 15 91 3 31
8 67 10 79 2 12 7 47 9 78 3 31 9 89 13 127 9 90 9 552 0 715 -4 69 -9 163
-12 210 -4 92 -8 151 -30 470 -5 73 -11 128 -20 200 -2 19 -7 58 -10 85 -15
136 -36 228 -47 209z"/>
<path d="M6168 12705 c-2 -2 -75 -6 -163 -10 -88 -3 -176 -8 -195 -10 -19 -2
-75 -6 -125 -10 -49 -4 -99 -8 -110 -9 -11 -2 -49 -6 -85 -10 -80 -9 -140 -17
-230 -31 -14 -3 -58 -9 -97 -15 -95 -13 -290 -52 -428 -85 -60 -15 -120 -29
-133 -31 -13 -3 -94 -25 -180 -50 -430 -124 -863 -301 -1227 -502 -159 -87
-178 -98 -272 -159 -28 -18 -54 -33 -57 -33 -19 0 -374 -252 -549 -389 -606
-477 -1112 -1046 -1489 -1676 -170 -284 -348 -645 -453 -920 -15 -38 -33 -83
-40 -100 -15 -34 -118 -345 -158 -475 -24 -77 -117 -442 -131 -515 -10 -49
-14 -66 -31 -144 -8 -41 -12 -77 -8 -81 70 -57 116 -92 153 -115 45 -28 366
-190 470 -238 30 -13 84 -38 120 -54 36 -17 99 -45 140 -63 41 -18 102 -45
136 -61 155 -72 524 -205 634 -229 19 -4 87 -21 150 -38 101 -26 160 -40 249
-57 14 -3 68 -13 120 -24 88 -18 162 -31 266 -46 22 -3 65 -10 95 -15 30 -5
75 -12 100 -15 25 -3 61 -7 80 -9 56 -7 131 -16 185 -21 28 -3 66 -7 85 -10
19 -3 69 -7 110 -10 41 -3 95 -7 120 -9 353 -37 935 -42 1280 -12 19 2 76 7
125 10 50 4 101 9 115 11 14 2 53 7 88 10 35 4 72 8 82 10 10 2 50 7 87 10 37
4 75 8 83 10 8 2 35 7 60 10 98 13 325 52 450 76 199 39 425 90 615 140 105
27 197 51 205 53 19 5 156 45 285 85 122 37 460 151 570 193 132 50 146 55
255 98 58 23 124 50 147 61 24 10 46 19 50 19 4 0 25 8 47 19 23 10 111 49
196 86 393 171 844 398 1235 620 61 35 126 72 145 82 200 113 564 342 905 568
242 161 373 253 705 492 80 58 229 171 250 190 14 13 28 23 32 23 3 0 13 6 20
13 7 7 83 66 168 131 85 66 180 140 211 165 31 25 73 60 94 76 44 34 69 55
385 320 124 104 227 192 230 195 3 4 43 40 90 81 47 40 103 90 125 110 22 20
90 81 150 135 61 54 124 112 142 129 17 16 82 77 144 135 62 58 185 175 273
261 195 190 305 296 340 328 25 23 24 21 -14 -70 -23 -52 -50 -114 -62 -139
-37 -79 -90 -195 -91 -200 -1 -3 -53 -106 -115 -229 -113 -224 -131 -259 -237
-451 -32 -58 -68 -123 -80 -145 -29 -55 -104 -187 -115 -205 -6 -8 -47 -80
-93 -160 -158 -276 -392 -663 -566 -938 -25 -40 -53 -83 -61 -97 -178 -292
-440 -681 -668 -990 -40 -56 -186 -250 -197 -263 -7 -9 -66 -84 -131 -167 -64
-82 -129 -164 -143 -181 -14 -17 -39 -48 -56 -69 -16 -21 -44 -55 -60 -74 -17
-20 -39 -47 -50 -60 -48 -57 -220 -259 -244 -286 -81 -94 -177 -202 -191 -216
-8 -8 -44 -49 -80 -89 -36 -40 -85 -95 -110 -121 -25 -26 -103 -110 -175 -186
-167 -178 -634 -644 -750 -749 -50 -44 -112 -100 -139 -125 -28 -24 -57 -51
-66 -59 -53 -50 -400 -337 -500 -415 -120 -93 -288 -218 -405 -302 -55 -39
-104 -75 -110 -80 -21 -17 -193 -132 -328 -220 -78 -51 -146 -96 -152 -101
-22 -18 -538 -323 -650 -384 -356 -194 -714 -372 -1000 -497 -136 -60 -641
-251 -700 -266 -5 -1 -17 -5 -25 -8 -8 -3 -46 -15 -85 -27 -38 -12 -122 -37
-185 -57 -170 -52 -589 -156 -795 -197 -228 -46 -222 -45 -275 -52 -25 -3 -47
-8 -50 -9 -3 -2 -26 -6 -50 -10 -25 -3 -99 -15 -165 -25 -66 -11 -147 -22
-180 -26 -33 -3 -68 -8 -77 -9 -9 -2 -48 -7 -85 -10 -37 -4 -79 -8 -93 -10
-14 -2 -56 -7 -95 -10 -38 -3 -81 -8 -95 -10 -14 -3 -68 -7 -120 -10 -52 -3
-111 -8 -130 -10 -165 -19 -1013 -28 -1253 -13 -59 3 -107 4 -107 3 0 -17 491
-512 625 -631 297 -264 602 -488 938 -691 141 -85 425 -240 501 -273 22 -10
84 -38 136 -62 52 -25 127 -57 165 -73 39 -15 84 -33 100 -41 104 -44 450
-164 580 -199 226 -63 472 -121 585 -140 19 -3 69 -12 110 -20 41 -8 129 -21
195 -30 66 -9 131 -18 145 -20 29 -5 101 -12 210 -20 41 -3 117 -9 169 -13
108 -9 539 -7 651 2 103 9 186 16 245 22 28 2 73 6 101 9 29 2 65 6 80 9 16 3
67 10 114 16 102 13 154 22 216 34 12 2 39 7 60 10 92 15 161 28 189 36 17 5
44 11 60 14 201 35 636 165 925 276 241 93 670 293 752 351 14 11 28 19 31 19
10 0 173 97 288 170 140 90 346 235 459 324 47 37 101 79 120 94 19 15 55 45
80 67 26 22 75 65 110 95 254 220 633 618 790 830 14 19 37 48 51 64 25 30
128 169 159 215 8 13 33 48 55 79 158 222 420 686 519 922 11 25 32 72 47 105
138 303 311 861 384 1236 7 34 23 127 30 169 3 19 8 42 10 50 5 19 13 73 34
230 17 126 21 153 26 210 2 30 7 80 10 110 3 30 7 78 10 105 23 247 23 694 0
895 -7 57 -17 162 -20 213 -2 26 -6 56 -9 65 -3 9 -8 42 -11 72 -9 89 -21 167
-30 200 -2 8 -7 35 -10 60 -18 128 -72 362 -165 707 l-22 82 48 76 c27 41 83
128 125 193 41 64 93 146 114 182 22 36 42 67 45 70 3 3 11 16 19 30 8 14 60
99 116 190 198 320 478 803 598 1030 27 52 53 100 57 105 23 30 291 572 375
760 13 28 38 82 55 120 18 39 56 122 85 185 56 122 81 179 125 275 100 217
140 318 260 645 15 41 51 136 79 210 l50 135 -105 -110 c-58 -60 -194 -202
-302 -315 -214 -223 -644 -654 -843 -845 -140 -135 -373 -354 -410 -386 -24
-20 -198 -179 -229 -209 -8 -8 -103 -91 -211 -185 -315 -275 -404 -350 -594
-504 -77 -63 -147 -120 -156 -128 -14 -12 -20 -6 -54 44 -78 120 -269 382
-334 459 -14 17 -38 46 -53 65 -14 19 -35 44 -45 55 -10 12 -38 46 -63 75
-115 137 -471 499 -600 611 -891 772 -1910 1263 -3040 1462 -116 21 -137 24
-195 31 -27 4 -57 8 -65 10 -8 2 -51 7 -95 11 -44 3 -82 8 -85 9 -3 2 -43 6
-90 10 -47 3 -105 8 -130 10 -25 3 -128 7 -230 10 -102 4 -200 8 -217 9 -18 2
-34 2 -35 1z"/>
</g>
</svg>
