<?xml version="1.0" encoding="utf-8"?>
<!-- Generator: Adobe Illustrator 22.1.0, SVG Export Plug-In . SVG Version: 6.00 Build 0)  -->
<svg version="1.1" id="Layer_1" xmlns="http://www.w3.org/2000/svg" xmlns:xlink="http://www.w3.org/1999/xlink" x="0px" y="0px"
	 viewBox="0 0 282.4 277.7" style="enable-background:new 0 0 282.4 277.7;" xml:space="preserve">
<style type="text/css">
	.st0{fill:#FFFFFF;}
</style>
<g id="surface2" transform="matrix(1.900643555320679,0,0,1.900643555320679,-215.65445327696287,-38.862424866105826)">
	<path class="st0" d="M236.2,48.7c0.2,0,2.1-1.1,5.5-3.4c3.5-2.2,7.1-5.4,11-9.6c3.9-4.2,6.6-9.3,8.1-15.3c0.4,0.6,0.8,4.9,1.2,13.2
		c0.4,8.2-1.9,16.8-6.8,25.8L253,45L236.2,48.7"/>
	<path class="st0" d="M249.4,49.2l-4.1,4.3c-7.7,8-15.4,15.1-23.1,21.3c-5.6-8.6-12.8-15.3-21.5-20.1c-8.7-4.8-18.2-7.2-28.6-7.3
		c-14.7,0.3-27.5,4.9-38.2,13.9c-10.7,9-17.5,20.7-20.3,35.1l-0.2,0.8l0.6,0.4c0.3,0.6,3.6,2.2,9.8,4.9c6.1,2.7,14.8,4.3,26.1,4.6
		c23.6-0.1,47.9-9.9,72.8-29.6c6.7-5.3,13.3-11.2,19.9-17.8c-2.8,6.8-8.1,16.4-15.9,28.6c-5.9,8.9-13.2,17.8-22,26.5
		c-8.8,8.7-19.1,16-30.9,21.8c-11.8,5.8-25.2,8.8-40.2,9c-1.3,0-2.6,0-3.8,0l-3-0.2l2,2.2c5.7,6.1,12.3,10.7,19.8,14
		c7.5,3.2,15.4,4.9,23.7,4.9c16.8-0.4,30.9-6.3,42.1-17.4c11.2-11.2,17-25.3,17.4-42.1c0-6.1-0.9-12.1-2.8-17.9
		c6.1-9.5,10.7-17.5,13.8-24c3-6.6,4.6-10,4.6-10.4L249.4,49.2"/>
</g>
<g id="surface4">
</g>
</svg>
